<svg xmlns="http://www.w3.org/2000/svg" viewBox="0 0 400 400" role="img" aria-label="Soma Safe - Seguranca que protege, tecnologia que conecta">
  <defs>
    <linearGradient id="ssGold" x1="0%" y1="0%" x2="100%" y2="100%">
      <stop offset="0%" stop-color="#F7D27A"/>
      <stop offset="35%" stop-color="#E0A82E"/>
      <stop offset="70%" stop-color="#C8961E"/>
      <stop offset="100%" stop-color="#8A6A12"/>
    </linearGradient>
    <radialGradient id="ssBg" cx="50%" cy="42%" r="68%">
      <stop offset="0%" stop-color="#2c2c2c"/>
      <stop offset="100%" stop-color="#0c0c0c"/>
    </radialGradient>
  </defs>

  <!-- Emblema -->
  <circle cx="200" cy="200" r="192" fill="url(#ssGold)"/>
  <circle cx="200" cy="200" r="177" fill="url(#ssBg)"/>

  <!-- Escudo -->
  <path d="M152 84 Q152 78 158 78 L242 78 Q248 78 248 84 L248 150 Q248 182 200 206 Q152 182 152 150 Z"
        fill="none" stroke="#ffffff" stroke-width="6" stroke-linejoin="round"/>

  <!-- Cadeado -->
  <path d="M186 124 v-7 a14 14 0 0 1 28 0 v7" fill="none" stroke="url(#ssGold)" stroke-width="7" stroke-linecap="round"/>
  <rect x="177" y="122" width="46" height="40" rx="7" fill="url(#ssGold)"/>
  <circle cx="200" cy="138" r="5" fill="#141414"/>
  <path d="M197.5 142 h5 l2 11 h-9 z" fill="#141414"/>

  <!-- SOMA SAFE (vetorizado) -->
  <path d="M75.20 222.26L75.20 229.64Q72.33 228.35 69.60 227.70Q66.87 227.05 64.45 227.05Q61.23 227.05 59.68 227.93Q58.15 228.81 58.15 230.68Q58.15 232.09 59.18 232.87Q60.22 233.65 62.95 234.21L66.78 234.97Q72.59 236.15 75.03 238.53Q77.49 240.90 77.49 245.29Q77.49 251.05 74.07 253.86Q70.65 256.68 63.63 256.68Q60.32 256.68 56.98 256.04Q53.64 255.42 50.31 254.18L50.31 246.60Q53.64 248.37 56.76 249.27Q59.87 250.17 62.77 250.17Q65.71 250.17 67.27 249.19Q68.83 248.21 68.83 246.38Q68.83 244.76 67.77 243.87Q66.71 242.98 63.54 242.28L60.06 241.51Q54.83 240.39 52.41 237.94Q50.00 235.49 50.00 231.34Q50.00 226.13 53.36 223.33Q56.72 220.53 63.02 220.53Q65.90 220.53 68.93 220.97Q71.96 221.40 75.20 222.26ZM101.29 227.05Q97.18 227.05 94.92 230.08Q92.66 233.11 92.66 238.62Q92.66 244.10 94.92 247.14Q97.18 250.17 101.29 250.17Q105.42 250.17 107.68 247.14Q109.94 244.10 109.94 238.62Q109.94 233.11 107.68 230.08Q105.42 227.05 101.29 227.05ZM101.29 220.53Q109.69 220.53 114.45 225.34Q119.21 230.14 119.21 238.62Q119.21 247.06 114.45 251.87Q109.69 256.68 101.29 256.68Q92.91 256.68 88.14 251.87Q83.37 247.06 83.37 238.62Q83.37 230.14 88.14 225.34Q92.91 220.53 101.29 220.53ZM126.00 221.16L137.43 221.16L145.36 239.81L153.34 221.16L164.75 221.16L164.75 256.00L156.26 256.00L156.26 230.52L148.24 249.30L142.54 249.30L134.51 230.52L134.51 256.00L126.00 256.00L126.00 221.16ZM194.69 249.65L180.64 249.65L178.43 256.00L169.39 256.00L182.29 221.16L193.01 221.16L205.91 256.00L196.88 256.00L194.69 249.65ZM182.88 243.19L192.43 243.19L187.66 229.33L182.88 243.19Z" fill="#ffffff"/>
  <path d="M245.45 222.26L245.45 229.64Q242.58 228.35 239.85 227.70Q237.12 227.05 234.69 227.05Q231.48 227.05 229.93 227.93Q228.39 228.81 228.39 230.68Q228.39 232.09 229.43 232.87Q230.47 233.65 233.20 234.21L237.02 234.97Q242.83 236.15 245.28 238.53Q247.74 240.90 247.74 245.29Q247.74 251.05 244.32 253.86Q240.90 256.68 233.87 256.68Q230.57 256.68 227.23 256.04Q223.89 255.42 220.55 254.18L220.55 246.60Q223.89 248.37 227.00 249.27Q230.12 250.17 233.01 250.17Q235.96 250.17 237.52 249.19Q239.08 248.21 239.08 246.38Q239.08 244.76 238.02 243.87Q236.96 242.98 233.78 242.28L230.30 241.51Q225.08 240.39 222.66 237.94Q220.25 235.49 220.25 231.34Q220.25 226.13 223.61 223.33Q226.97 220.53 233.27 220.53Q236.14 220.53 239.17 220.97Q242.21 221.40 245.45 222.26ZM276.76 249.65L262.72 249.65L260.50 256.00L251.47 256.00L264.37 221.16L275.08 221.16L287.98 256.00L278.96 256.00L276.76 249.65ZM264.96 243.19L274.50 243.19L269.74 229.33L264.96 243.19ZM292.61 221.16L316.84 221.16L316.84 227.96L301.59 227.96L301.59 234.44L315.94 234.44L315.94 241.23L301.59 241.23L301.59 256.00L292.61 256.00L292.61 221.16ZM325.25 221.16L349.48 221.16L349.48 227.96L334.23 227.96L334.23 234.44L348.58 234.44L348.58 241.23L334.23 241.23L334.23 249.21L350.00 249.21L350.00 256.00L325.25 256.00L325.25 221.16Z" fill="url(#ssGold)"/>

  <!-- Linha -->
  <rect x="72" y="268" width="256" height="2" fill="url(#ssGold)"/>

  <!-- Slogan (vetorizado) -->
  <path d="M76.27 280.28L76.27 281.53Q75.79 281.31 75.32 281.20Q74.86 281.09 74.45 281.09Q73.90 281.09 73.64 281.24Q73.38 281.39 73.38 281.71Q73.38 281.95 73.56 282.08Q73.73 282.21 74.20 282.31L74.84 282.44Q75.83 282.63 76.24 283.04Q76.66 283.44 76.66 284.18Q76.66 285.16 76.08 285.64Q75.50 286.12 74.31 286.12Q73.75 286.12 73.18 286.01Q72.62 285.90 72.05 285.69L72.05 284.41Q72.62 284.71 73.15 284.86Q73.67 285.01 74.16 285.01Q74.66 285.01 74.93 284.85Q75.19 284.68 75.19 284.37Q75.19 284.09 75.01 283.94Q74.83 283.79 74.29 283.67L73.70 283.54Q72.82 283.35 72.41 282.94Q72.00 282.52 72.00 281.82Q72.00 280.94 72.57 280.46Q73.14 279.99 74.21 279.99Q74.69 279.99 75.21 280.06Q75.72 280.13 76.27 280.28ZM78.00 280.09L82.11 280.09L82.11 281.25L79.52 281.25L79.52 282.34L81.95 282.34L81.95 283.50L79.52 283.50L79.52 284.85L82.19 284.85L82.19 286.00L78.00 286.00L78.00 280.09ZM88.84 285.56Q88.27 285.84 87.66 285.98Q87.04 286.12 86.39 286.12Q84.91 286.12 84.05 285.29Q83.19 284.46 83.19 283.05Q83.19 281.63 84.07 280.81Q84.95 279.99 86.47 279.99Q87.06 279.99 87.60 280.10Q88.14 280.21 88.62 280.43L88.62 281.65Q88.13 281.37 87.64 281.23Q87.15 281.09 86.66 281.09Q85.75 281.09 85.26 281.60Q84.76 282.11 84.76 283.05Q84.76 283.99 85.24 284.50Q85.71 285.01 86.59 285.01Q86.83 285.01 87.03 284.98Q87.23 284.95 87.39 284.89L87.39 283.74L86.46 283.74L86.46 282.72L88.84 282.72L88.84 285.56ZM90.18 280.09L91.70 280.09L91.70 283.63Q91.70 284.37 91.94 284.68Q92.18 285.00 92.72 285.00Q93.27 285.00 93.51 284.68Q93.75 284.37 93.75 283.63L93.75 280.09L95.27 280.09L95.27 283.63Q95.27 284.89 94.64 285.50Q94.01 286.12 92.72 286.12Q91.44 286.12 90.81 285.50Q90.18 284.89 90.18 283.63L90.18 280.09ZM98.92 282.71Q99.40 282.71 99.61 282.54Q99.81 282.36 99.81 281.95Q99.81 281.55 99.61 281.37Q99.40 281.20 98.92 281.20L98.28 281.20L98.28 282.71L98.92 282.71ZM98.28 283.76L98.28 286.00L96.76 286.00L96.76 280.09L99.08 280.09Q100.25 280.09 100.79 280.49Q101.34 280.88 101.34 281.72Q101.34 282.31 101.05 282.69Q100.77 283.06 100.20 283.24Q100.51 283.31 100.76 283.56Q101.01 283.81 101.26 284.32L102.09 286.00L100.47 286.00L99.75 284.53Q99.53 284.09 99.31 283.93Q99.08 283.76 98.71 283.76L98.28 283.76ZM106.58 284.92L104.20 284.92L103.82 286.00L102.29 286.00L104.48 280.09L106.29 280.09L108.48 286.00L106.95 286.00L106.58 284.92ZM104.58 283.83L106.19 283.83L105.39 281.48L104.58 283.83ZM109.26 280.09L110.96 280.09L113.11 284.14L113.11 280.09L114.56 280.09L114.56 286.00L112.85 286.00L110.71 281.95L110.71 286.00L109.26 286.00L109.26 280.09ZM120.73 285.68Q120.31 285.89 119.85 286.00Q119.40 286.12 118.90 286.12Q117.43 286.12 116.56 285.29Q115.70 284.46 115.70 283.05Q115.70 281.64 116.56 280.81Q117.43 279.99 118.90 279.99Q119.40 279.99 119.85 280.10Q120.31 280.21 120.73 280.43L120.73 281.65Q120.30 281.36 119.89 281.23Q119.48 281.09 119.03 281.09Q118.21 281.09 117.74 281.61Q117.28 282.14 117.28 283.05Q117.28 283.97 117.74 284.49Q118.21 285.01 119.03 285.01Q119.48 285.01 119.89 284.88Q120.30 284.74 120.73 284.45L120.73 285.68ZM119.15 286.00Q119.38 286.25 119.49 286.45Q119.59 286.66 119.59 286.85Q119.59 287.23 119.35 287.41Q119.11 287.59 118.61 287.59Q118.42 287.59 118.21 287.56Q118.01 287.54 117.81 287.48L117.80 286.88Q118.00 286.95 118.16 286.97Q118.33 287.00 118.46 287.00Q118.69 287.00 118.82 286.91Q118.95 286.82 118.95 286.66Q118.95 286.56 118.86 286.40Q118.78 286.24 118.60 286.00L119.15 286.00ZM125.57 284.92L123.19 284.92L122.81 286.00L121.28 286.00L123.47 280.09L125.29 280.09L127.47 286.00L125.94 286.00L125.57 284.92ZM123.57 283.83L125.19 283.83L124.38 281.48L123.57 283.83ZM133.94 286.11L133.82 286.11Q132.36 286.11 131.55 285.30Q130.74 284.49 130.74 283.05Q130.74 281.62 131.55 280.80Q132.35 279.99 133.77 279.99Q135.21 279.99 136.01 280.80Q136.81 281.60 136.81 283.05Q136.81 284.05 136.39 284.77Q135.96 285.49 135.16 285.85L136.35 287.18L134.90 287.18L133.94 286.11ZM133.77 281.09Q133.08 281.09 132.69 281.61Q132.31 282.12 132.31 283.05Q132.31 284.00 132.69 284.51Q133.06 285.01 133.77 285.01Q134.47 285.01 134.86 284.50Q135.24 283.98 135.24 283.05Q135.24 282.12 134.86 281.61Q134.47 281.09 133.77 281.09ZM137.96 280.09L139.49 280.09L139.49 283.63Q139.49 284.37 139.73 284.68Q139.96 285.00 140.51 285.00Q141.05 285.00 141.29 284.68Q141.53 284.37 141.53 283.63L141.53 280.09L143.05 280.09L143.05 283.63Q143.05 284.89 142.42 285.50Q141.80 286.12 140.51 286.12Q139.22 286.12 138.59 285.50Q137.96 284.89 137.96 283.63L137.96 280.09ZM144.54 280.09L148.65 280.09L148.65 281.25L146.06 281.25L146.06 282.34L148.50 282.34L148.50 283.50L146.06 283.50L146.06 284.85L148.74 284.85L148.74 286.00L144.54 286.00L144.54 280.09ZM152.89 280.09L155.42 280.09Q156.55 280.09 157.15 280.60Q157.75 281.10 157.75 282.02Q157.75 282.95 157.15 283.45Q156.55 283.95 155.42 283.95L154.42 283.95L154.42 286.00L152.89 286.00L152.89 280.09ZM154.42 281.20L154.42 282.85L155.26 282.85Q155.70 282.85 155.94 282.63Q156.19 282.42 156.19 282.02Q156.19 281.63 155.94 281.41Q155.70 281.20 155.26 281.20L154.42 281.20ZM160.99 282.71Q161.47 282.71 161.68 282.54Q161.89 282.36 161.89 281.95Q161.89 281.55 161.68 281.37Q161.47 281.20 160.99 281.20L160.35 281.20L160.35 282.71L160.99 282.71ZM160.35 283.76L160.35 286.00L158.83 286.00L158.83 280.09L161.16 280.09Q162.32 280.09 162.87 280.49Q163.41 280.88 163.41 281.72Q163.41 282.31 163.13 282.69Q162.84 283.06 162.28 283.24Q162.59 283.31 162.83 283.56Q163.08 283.81 163.34 284.32L164.16 286.00L162.54 286.00L161.82 284.53Q161.60 284.09 161.38 283.93Q161.16 283.76 160.78 283.76L160.35 283.76ZM167.77 281.09Q167.07 281.09 166.69 281.61Q166.30 282.12 166.30 283.05Q166.30 283.98 166.69 284.50Q167.07 285.01 167.77 285.01Q168.47 285.01 168.85 284.50Q169.23 283.98 169.23 283.05Q169.23 282.12 168.85 281.61Q168.47 281.09 167.77 281.09ZM167.77 279.99Q169.19 279.99 170.00 280.80Q170.80 281.62 170.80 283.05Q170.80 284.48 170.00 285.30Q169.19 286.12 167.77 286.12Q166.35 286.12 165.54 285.30Q164.73 284.48 164.73 283.05Q164.73 281.62 165.54 280.80Q166.35 279.99 167.77 279.99ZM171.25 280.09L176.69 280.09L176.69 281.25L174.73 281.25L174.73 286.00L173.21 286.00L173.21 281.25L171.25 281.25L171.25 280.09ZM177.48 280.09L181.59 280.09L181.59 281.25L179.00 281.25L179.00 282.34L181.44 282.34L181.44 283.50L179.00 283.50L179.00 284.85L181.68 284.85L181.68 286.00L177.48 286.00L177.48 280.09ZM188.32 285.56Q187.75 285.84 187.14 285.98Q186.53 286.12 185.87 286.12Q184.40 286.12 183.54 285.29Q182.67 284.46 182.67 283.05Q182.67 281.63 183.55 280.81Q184.43 279.99 185.96 279.99Q186.55 279.99 187.08 280.10Q187.63 280.21 188.10 280.43L188.10 281.65Q187.61 281.37 187.12 281.23Q186.63 281.09 186.14 281.09Q185.23 281.09 184.74 281.60Q184.25 282.11 184.25 283.05Q184.25 283.99 184.72 284.50Q185.20 285.01 186.07 285.01Q186.31 285.01 186.51 284.98Q186.72 284.95 186.88 284.89L186.88 283.74L185.95 283.74L185.95 282.72L188.32 282.72L188.32 285.56ZM189.66 280.09L193.77 280.09L193.77 281.25L191.19 281.25L191.19 282.34L193.62 282.34L193.62 283.50L191.19 283.50L191.19 284.85L193.86 284.85L193.86 286.00L189.66 286.00L189.66 280.09ZM195.28 284.47L196.70 284.47L196.70 285.68L195.73 287.15L194.88 287.15L195.28 285.68L195.28 284.47ZM200.39 280.09L205.83 280.09L205.83 281.25L203.87 281.25L203.87 286.00L202.35 286.00L202.35 281.25L200.39 281.25L200.39 280.09ZM206.62 280.09L210.73 280.09L210.73 281.25L208.14 281.25L208.14 282.34L210.57 282.34L210.57 283.50L208.14 283.50L208.14 284.85L210.82 284.85L210.82 286.00L206.62 286.00L206.62 280.09ZM216.84 285.68Q216.42 285.89 215.96 286.00Q215.51 286.12 215.01 286.12Q213.54 286.12 212.67 285.29Q211.81 284.46 211.81 283.05Q211.81 281.64 212.67 280.81Q213.54 279.99 215.01 279.99Q215.51 279.99 215.96 280.10Q216.42 280.21 216.84 280.43L216.84 281.65Q216.41 281.36 216.00 281.23Q215.59 281.09 215.13 281.09Q214.32 281.09 213.85 281.61Q213.39 282.14 213.39 283.05Q213.39 283.97 213.85 284.49Q214.32 285.01 215.13 285.01Q215.59 285.01 216.00 284.88Q216.41 284.74 216.84 284.45L216.84 285.68ZM218.10 280.09L219.80 280.09L221.95 284.14L221.95 280.09L223.39 280.09L223.39 286.00L221.69 286.00L219.54 281.95L219.54 286.00L218.10 286.00L218.10 280.09ZM227.57 281.09Q226.88 281.09 226.49 281.61Q226.11 282.12 226.11 283.05Q226.11 283.98 226.49 284.50Q226.88 285.01 227.57 285.01Q228.27 285.01 228.66 284.50Q229.04 283.98 229.04 283.05Q229.04 282.12 228.66 281.61Q228.27 281.09 227.57 281.09ZM227.57 279.99Q229.00 279.99 229.80 280.80Q230.61 281.62 230.61 283.05Q230.61 284.48 229.80 285.30Q229.00 286.12 227.57 286.12Q226.15 286.12 225.35 285.30Q224.54 284.48 224.54 283.05Q224.54 281.62 225.35 280.80Q226.15 279.99 227.57 279.99ZM231.76 280.09L233.29 280.09L233.29 284.85L235.96 284.85L235.96 286.00L231.76 286.00L231.76 280.09ZM239.33 281.09Q238.63 281.09 238.25 281.61Q237.87 282.12 237.87 283.05Q237.87 283.98 238.25 284.50Q238.63 285.01 239.33 285.01Q240.03 285.01 240.41 284.50Q240.80 283.98 240.80 283.05Q240.80 282.12 240.41 281.61Q240.03 281.09 239.33 281.09ZM239.33 279.99Q240.75 279.99 241.56 280.80Q242.37 281.62 242.37 283.05Q242.37 284.48 241.56 285.30Q240.75 286.12 239.33 286.12Q237.91 286.12 237.10 285.30Q236.29 284.48 236.29 283.05Q236.29 281.62 237.10 280.80Q237.91 279.99 239.33 279.99ZM248.82 285.56Q248.25 285.84 247.64 285.98Q247.03 286.12 246.38 286.12Q244.90 286.12 244.04 285.29Q243.18 284.46 243.18 283.05Q243.18 281.63 244.05 280.81Q244.93 279.99 246.46 279.99Q247.05 279.99 247.59 280.10Q248.13 280.21 248.61 280.43L248.61 281.65Q248.11 281.37 247.62 281.23Q247.14 281.09 246.64 281.09Q245.74 281.09 245.24 281.60Q244.75 282.11 244.75 283.05Q244.75 283.99 245.23 284.50Q245.70 285.01 246.57 285.01Q246.81 285.01 247.02 284.98Q247.22 284.95 247.38 284.89L247.38 283.74L246.45 283.74L246.45 282.72L248.82 282.72L248.82 285.56ZM250.17 280.09L251.69 280.09L251.69 286.00L250.17 286.00L250.17 280.09ZM256.76 284.92L254.38 284.92L254.01 286.00L252.47 286.00L254.66 280.09L256.48 280.09L258.67 286.00L257.14 286.00L256.76 284.92ZM254.76 283.83L256.38 283.83L255.57 281.48L254.76 283.83ZM265.13 286.11L265.01 286.11Q263.55 286.11 262.74 285.30Q261.93 284.49 261.93 283.05Q261.93 281.62 262.74 280.80Q263.55 279.99 264.97 279.99Q266.40 279.99 267.20 280.80Q268.00 281.60 268.00 283.05Q268.00 284.05 267.58 284.77Q267.15 285.49 266.35 285.85L267.54 287.18L266.09 287.18L265.13 286.11ZM264.97 281.09Q264.27 281.09 263.89 281.61Q263.50 282.12 263.50 283.05Q263.50 284.00 263.88 284.51Q264.25 285.01 264.97 285.01Q265.67 285.01 266.05 284.50Q266.43 283.98 266.43 283.05Q266.43 282.12 266.05 281.61Q265.67 281.09 264.97 281.09ZM269.16 280.09L270.68 280.09L270.68 283.63Q270.68 284.37 270.92 284.68Q271.16 285.00 271.70 285.00Q272.24 285.00 272.48 284.68Q272.72 284.37 272.72 283.63L272.72 280.09L274.24 280.09L274.24 283.63Q274.24 284.89 273.62 285.50Q272.99 286.12 271.70 286.12Q270.41 286.12 269.78 285.50Q269.16 284.89 269.16 283.63L269.16 280.09ZM275.73 280.09L279.84 280.09L279.84 281.25L277.26 281.25L277.26 282.34L279.69 282.34L279.69 283.50L277.26 283.50L277.26 284.85L279.93 284.85L279.93 286.00L275.73 286.00L275.73 280.09ZM288.77 285.68Q288.35 285.89 287.89 286.00Q287.44 286.12 286.95 286.12Q285.47 286.12 284.61 285.29Q283.75 284.46 283.75 283.05Q283.75 281.64 284.61 280.81Q285.47 279.99 286.95 279.99Q287.44 279.99 287.89 280.10Q288.35 280.21 288.77 280.43L288.77 281.65Q288.35 281.36 287.93 281.23Q287.52 281.09 287.07 281.09Q286.25 281.09 285.79 281.61Q285.32 282.14 285.32 283.05Q285.32 283.97 285.79 284.49Q286.25 285.01 287.07 285.01Q287.52 285.01 287.93 284.88Q288.35 284.74 288.77 284.45L288.77 285.68ZM292.73 281.09Q292.03 281.09 291.65 281.61Q291.27 282.12 291.27 283.05Q291.27 283.98 291.65 284.50Q292.03 285.01 292.73 285.01Q293.43 285.01 293.81 284.50Q294.20 283.98 294.20 283.05Q294.20 282.12 293.81 281.61Q293.43 281.09 292.73 281.09ZM292.73 279.99Q294.15 279.99 294.96 280.80Q295.77 281.62 295.77 283.05Q295.77 284.48 294.96 285.30Q294.15 286.12 292.73 286.12Q291.31 286.12 290.50 285.30Q289.69 284.48 289.69 283.05Q289.69 281.62 290.50 280.80Q291.31 279.99 292.73 279.99ZM296.92 280.09L298.62 280.09L300.77 284.14L300.77 280.09L302.21 280.09L302.21 286.00L300.51 286.00L298.36 281.95L298.36 286.00L296.92 286.00L296.92 280.09ZM303.70 280.09L307.81 280.09L307.81 281.25L305.22 281.25L305.22 282.34L307.65 282.34L307.65 283.50L305.22 283.50L305.22 284.85L307.89 284.85L307.89 286.00L303.70 286.00L303.70 280.09ZM313.91 285.68Q313.49 285.89 313.04 286.00Q312.58 286.12 312.09 286.12Q310.61 286.12 309.75 285.29Q308.89 284.46 308.89 283.05Q308.89 281.64 309.75 280.81Q310.61 279.99 312.09 279.99Q312.58 279.99 313.04 280.10Q313.49 280.21 313.91 280.43L313.91 281.65Q313.49 281.36 313.08 281.23Q312.67 281.09 312.21 281.09Q311.40 281.09 310.93 281.61Q310.46 282.14 310.46 283.05Q310.46 283.97 310.93 284.49Q311.40 285.01 312.21 285.01Q312.67 285.01 313.08 284.88Q313.49 284.74 313.91 284.45L313.91 285.68ZM314.47 280.09L319.91 280.09L319.91 281.25L317.95 281.25L317.95 286.00L316.43 286.00L316.43 281.25L314.47 281.25L314.47 280.09ZM323.66 284.92L321.28 284.92L320.90 286.00L319.37 286.00L321.55 280.09L323.37 280.09L325.56 286.00L324.03 286.00L323.66 284.92ZM321.65 283.83L323.27 283.83L322.46 281.48L321.65 283.83ZM326.58 284.47L328.00 284.47L328.00 286.00L326.58 286.00L326.58 284.47Z" fill="#e8e8e8"/>
</svg>
